<svg xmlns="http://www.w3.org/2000/svg" xmlns:xlink="http://www.w3.org/1999/xlink" width="500" zoomAndPan="magnify" viewBox="0 0 375 374.999991" height="500" preserveAspectRatio="xMidYMid meet" version="1.0"><defs><clipPath id="235fcf95b1"><path d="M 187.5 0 C 83.945312 0 0 83.945312 0 187.5 C 0 291.054688 83.945312 375 187.5 375 C 291.054688 375 375 291.054688 375 187.5 C 375 83.945312 291.054688 0 187.5 0 Z M 187.5 0 " clip-rule="nonzero"/></clipPath><clipPath id="3a24fdfe7e"><path d="M 26 45 L 325 45 L 325 330 L 26 330 Z M 26 45 " clip-rule="nonzero"/></clipPath><clipPath id="5a157b1e8d"><path d="M 0 283.957031 L 105.042969 -0.253906 L 351.261719 90.746094 L 246.222656 374.957031 Z M 0 283.957031 " clip-rule="nonzero"/></clipPath><clipPath id="43441d87e8"><path d="M 0 283.957031 L 105.042969 -0.253906 L 351.261719 90.746094 L 246.222656 374.957031 Z M 0 283.957031 " clip-rule="nonzero"/></clipPath><clipPath id="e677619db4"><path d="M 82.546875 76.035156 L 345.796875 76.035156 L 345.796875 304 L 82.546875 304 Z M 82.546875 76.035156 " clip-rule="nonzero"/></clipPath><clipPath id="4a93920295"><path d="M 180.140625 116.601562 L 209 116.601562 L 209 243 L 180.140625 243 Z M 180.140625 116.601562 " clip-rule="nonzero"/></clipPath><clipPath id="e6d83e441a"><path d="M 180.140625 144 L 209 144 L 209 174 L 180.140625 174 Z M 180.140625 144 " clip-rule="nonzero"/></clipPath><clipPath id="3de22d2b06"><path d="M 180.140625 173 L 209 173 L 209 202 L 180.140625 202 Z M 180.140625 173 " clip-rule="nonzero"/></clipPath><clipPath id="86ef562aed"><path d="M 180.140625 201 L 209 201 L 209 230 L 180.140625 230 Z M 180.140625 201 " clip-rule="nonzero"/></clipPath><clipPath id="145e9dcdbd"><path d="M 180.140625 229 L 209 229 L 209 258.351562 L 180.140625 258.351562 Z M 180.140625 229 " clip-rule="nonzero"/></clipPath><clipPath id="320bbabe0f"><path d="M 237 189 L 266 189 L 266 258.351562 L 237 258.351562 Z M 237 189 " clip-rule="nonzero"/></clipPath><clipPath id="4ef5b925c0"><path d="M 237 116.601562 L 266 116.601562 L 266 145 L 237 145 Z M 237 116.601562 " clip-rule="nonzero"/></clipPath></defs><rect x="-37.5" width="450" fill="#ffffff" y="-37.499999" height="449.999989" fill-opacity="1"/><rect x="-37.5" width="450" fill="#ffffff" y="-37.499999" height="449.999989" fill-opacity="1"/><g clip-path="url(#235fcf95b1)"><rect x="-37.5" width="450" fill="#111142" y="-37.499999" height="449.999989" fill-opacity="1"/></g><g clip-path="url(#3a24fdfe7e)"><g clip-path="url(#5a157b1e8d)"><g clip-path="url(#43441d87e8)"><path fill="#4aef9a" d="M 78.976562 70.871094 L 26.453125 212.976562 L 123.113281 329.457031 L 272.289062 303.832031 L 324.808594 161.726562 L 228.152344 45.246094 Z M 318.691406 162.789062 L 268.332031 299.050781 L 125.25 323.671875 L 32.570312 211.914062 L 82.953125 75.597656 L 226.011719 51.035156 Z M 318.691406 162.789062 " fill-opacity="1" fill-rule="nonzero"/></g></g></g><g clip-path="url(#e677619db4)"><path fill="#726edf" d="M 279.984375 76.214844 L 148.359375 76.214844 L 82.546875 190.035156 L 148.359375 303.855469 L 279.984375 303.855469 L 345.796875 190.035156 Z M 277.277344 299.191406 L 151.066406 299.191406 L 87.910156 190.035156 L 151.066406 80.878906 L 277.332031 80.878906 L 340.4375 190.035156 Z M 277.277344 299.191406 " fill-opacity="1" fill-rule="nonzero"/></g><g clip-path="url(#4a93920295)"><path fill="#4aef9a" d="M 180.398438 116.605469 L 208.847656 116.605469 L 208.847656 242.519531 L 180.398438 242.519531 Z M 180.398438 116.605469 " fill-opacity="1" fill-rule="nonzero"/></g><g clip-path="url(#e6d83e441a)"><path fill="#4aef9a" d="M 180.398438 144.953125 L 208.847656 144.953125 L 208.847656 173.296875 L 180.398438 173.296875 Z M 180.398438 144.953125 " fill-opacity="1" fill-rule="nonzero"/></g><g clip-path="url(#3de22d2b06)"><path fill="#4aef9a" d="M 180.398438 173.296875 L 208.847656 173.296875 L 208.847656 201.644531 L 180.398438 201.644531 Z M 180.398438 173.296875 " fill-opacity="1" fill-rule="nonzero"/></g><g clip-path="url(#86ef562aed)"><path fill="#4aef9a" d="M 180.398438 201.640625 L 208.847656 201.640625 L 208.847656 229.984375 L 180.398438 229.984375 Z M 180.398438 201.640625 " fill-opacity="1" fill-rule="nonzero"/></g><g clip-path="url(#145e9dcdbd)"><path fill="#4aef9a" d="M 180.398438 229.984375 L 208.847656 229.984375 L 208.847656 258.332031 L 180.398438 258.332031 Z M 180.398438 229.984375 " fill-opacity="1" fill-rule="nonzero"/></g><path fill="#4aef9a" d="M 208.847656 173.296875 L 237.296875 173.296875 L 237.296875 201.644531 L 208.847656 201.644531 Z M 208.847656 173.296875 " fill-opacity="1" fill-rule="nonzero"/><path fill="#4aef9a" d="M 202.683594 173.296875 L 265.746094 173.296875 L 265.746094 201.644531 L 202.683594 201.644531 Z M 202.683594 173.296875 " fill-opacity="1" fill-rule="nonzero"/><path fill="#4aef9a" d="M 237.296875 201.640625 L 265.746094 201.640625 L 265.746094 229.984375 L 237.296875 229.984375 Z M 237.296875 201.640625 " fill-opacity="1" fill-rule="nonzero"/><g clip-path="url(#320bbabe0f)"><path fill="#4aef9a" d="M 237.296875 189.890625 L 265.746094 189.890625 L 265.746094 258.332031 L 237.296875 258.332031 Z M 237.296875 189.890625 " fill-opacity="1" fill-rule="nonzero"/></g><g clip-path="url(#4ef5b925c0)"><path fill="#4aef9a" d="M 237.296875 116.605469 L 265.746094 116.605469 L 265.746094 144.953125 L 237.296875 144.953125 Z M 237.296875 116.605469 " fill-opacity="1" fill-rule="nonzero"/></g></svg>