<svg xmlns="http://www.w3.org/2000/svg" xmlns:xlink="http://www.w3.org/1999/xlink" width="32" zoomAndPan="magnify" viewBox="0 0 24 24" height="32" preserveAspectRatio="xMidYMid meet" version="1.0"><defs><clipPath id="235fcf95b1"><path d="M12 0C5.372 0 0 5.372 0 12S5.372 24 12 24 24 18.628 24 12 18.628 0 12 0Zm0 0" clip-rule="nonzero"/></clipPath><clipPath id="3a24fdfe7e"><path d="M1.664 2.88h19.136v18.24H1.664Zm0 0" clip-rule="nonzero"/></clipPath><clipPath id="5a157b1e8d"><path d="M0 18.173 6.723 -0.016l15.758 5.824 -6.723 18.189Zm0 0" clip-rule="nonzero"/></clipPath><clipPath id="43441d87e8"><path d="M0 18.173 6.723 -0.016l15.758 5.824 -6.723 18.189Zm0 0" clip-rule="nonzero"/></clipPath><clipPath id="e677619db4"><path d="M5.283 4.866h16.848V19.456H5.283Zm0 0" clip-rule="nonzero"/></clipPath><clipPath id="4a93920295"><path d="M11.529 7.463H13.376V15.552h-1.847Zm0 0" clip-rule="nonzero"/></clipPath><clipPath id="e6d83e441a"><path d="M11.529 9.216H13.376v1.92h-1.847Zm0 0" clip-rule="nonzero"/></clipPath><clipPath id="3de22d2b06"><path d="M11.529 11.072H13.376v1.856h-1.847Zm0 0" clip-rule="nonzero"/></clipPath><clipPath id="86ef562aed"><path d="M11.529 12.864H13.376v1.856h-1.847Zm0 0" clip-rule="nonzero"/></clipPath><clipPath id="145e9dcdbd"><path d="M11.529 14.656H13.376v1.879h-1.847Zm0 0" clip-rule="nonzero"/></clipPath><clipPath id="320bbabe0f"><path d="M15.168 12.096h1.856v4.439h-1.856Zm0 0" clip-rule="nonzero"/></clipPath><clipPath id="4ef5b925c0"><path d="M15.168 7.463h1.856V9.28h-1.856Zm0 0" clip-rule="nonzero"/></clipPath></defs><path x="-37.5" width="450" fill="#ffffff" y="-37.499999" height="449.999989" fill-opacity="1" d="M-2.4 -2.4H26.4V26.4H-2.4V-2.4z"/><path x="-37.5" width="450" fill="#ffffff" y="-37.499999" height="449.999989" fill-opacity="1" d="M-2.4 -2.4H26.4V26.4H-2.4V-2.4z"/><g clip-path="url(#235fcf95b1)"><path x="-37.5" width="450" fill="#111142" y="-37.499999" height="449.999989" fill-opacity="1" d="M-2.4 -2.4H26.4V26.4H-2.4V-2.4z"/></g><g clip-path="url(#3a24fdfe7e)"><g clip-path="url(#5a157b1e8d)"><g clip-path="url(#43441d87e8)"><path fill="#4aef9a" d="M5.055 4.536 1.693 13.631l6.186 7.455 9.547 -1.64 3.361 -9.095 -6.186 -7.455ZM20.396 10.419l-3.223 8.721 -9.157 1.576 -5.932 -7.152L5.309 4.838l9.156 -1.572Zm0 0" fill-opacity="1" fill-rule="nonzero"/></g></g></g><g clip-path="url(#e677619db4)"><path fill="#726edf" d="M17.919 4.878H9.495l-4.212 7.284 4.212 7.284h8.424l4.212 -7.284Zm-0.173 14.27h-8.077L5.626 12.162 9.668 5.176h8.081l4.039 6.986Zm0 0" fill-opacity="1" fill-rule="nonzero"/></g><g clip-path="url(#4a93920295)"><path fill="#4aef9a" d="M11.545 7.463h1.821V15.521h-1.821Zm0 0" fill-opacity="1" fill-rule="nonzero"/></g><g clip-path="url(#e6d83e441a)"><path fill="#4aef9a" d="M11.545 9.277h1.821v1.814h-1.821Zm0 0" fill-opacity="1" fill-rule="nonzero"/></g><g clip-path="url(#3de22d2b06)"><path fill="#4aef9a" d="M11.545 11.091h1.821v1.814h-1.821Zm0 0" fill-opacity="1" fill-rule="nonzero"/></g><g clip-path="url(#86ef562aed)"><path fill="#4aef9a" d="M11.545 12.905h1.821v1.814h-1.821Zm0 0" fill-opacity="1" fill-rule="nonzero"/></g><g clip-path="url(#145e9dcdbd)"><path fill="#4aef9a" d="M11.545 14.719h1.821v1.814h-1.821Zm0 0" fill-opacity="1" fill-rule="nonzero"/></g><path fill="#4aef9a" d="M13.366 11.091h1.821v1.814h-1.821Zm0 0" fill-opacity="1" fill-rule="nonzero"/><path fill="#4aef9a" d="M12.972 11.091h4.036v1.814h-4.036Zm0 0" fill-opacity="1" fill-rule="nonzero"/><path fill="#4aef9a" d="M15.187 12.905h1.821v1.814h-1.821Zm0 0" fill-opacity="1" fill-rule="nonzero"/><g clip-path="url(#320bbabe0f)"><path fill="#4aef9a" d="M15.187 12.153h1.821v4.38h-1.821Zm0 0" fill-opacity="1" fill-rule="nonzero"/></g><g clip-path="url(#4ef5b925c0)"><path fill="#4aef9a" d="M15.187 7.463h1.821v1.814h-1.821Zm0 0" fill-opacity="1" fill-rule="nonzero"/></g></svg>